<?xml version="1.0" encoding="iso-8859-1"?>
<!-- Generator: Adobe Illustrator 19.0.0, SVG Export Plug-In . SVG Version: 6.00 Build 0)  -->
<svg version="1.1" id="Capa_1" xmlns="http://www.w3.org/2000/svg" xmlns:xlink="http://www.w3.org/1999/xlink" x="0px" y="0px"
	 viewBox="0 0 511.998 511.998" style="enable-background:new 0 0 511.998 511.998;" xml:space="preserve">
<polygon style="fill:#C4C1C1;" points="256.001,255.999 256.001,256.678 41.709,380.401 41.641,380.356 41.641,132.842 
	42.173,132.537 "/>
<polygon style="fill:#E2E0E0;" points="256.001,256.678 256.001,504.113 41.709,380.401 "/>
<polygon style="fill:#FFA638;" points="470.35,132.842 470.35,380.356 470.282,380.39 256.001,256.678 256.001,255.999 
	469.829,132.537 "/>
<polygon style="opacity:0.5;fill:#EB7100;enable-background:new    ;" points="470.35,132.842 470.35,380.356 470.282,380.39 
	256.001,256.678 256.001,255.999 469.829,132.537 "/>
<g>
	<polygon style="fill:#FFA638;" points="470.282,380.39 256.001,504.113 256.001,256.678 	"/>
	<polygon style="fill:#FFA638;" points="469.829,132.537 256.001,255.999 256.001,9.085 	"/>
</g>
<polygon style="fill:#E2E0E0;" points="256.001,10.217 256.001,257.131 42.173,133.668 "/>
<path d="M320.965,283.949l-20.187-11.654c-4.062-2.345-9.251-0.953-11.593,3.106c-2.343,4.059-0.953,9.249,3.106,11.593
	l20.187,11.654c1.337,0.772,2.796,1.138,4.235,1.138c2.933,0,5.786-1.523,7.357-4.244
	C326.416,291.481,325.024,286.292,320.965,283.949z"/>
<path d="M370.589,312.599l-20.186-11.655c-4.058-2.345-9.249-0.954-11.593,3.106c-2.343,4.059-0.953,9.249,3.106,11.593
	l20.186,11.655c1.336,0.772,2.796,1.138,4.235,1.138c2.933,0,5.784-1.522,7.357-4.244
	C376.039,320.133,374.648,314.943,370.589,312.599z"/>
<path d="M420.213,341.25l-20.187-11.655c-4.061-2.346-9.25-0.953-11.593,3.106c-2.343,4.059-0.953,9.249,3.106,11.593l20.187,11.655
	c1.337,0.772,2.796,1.138,4.235,1.138c2.933,0,5.786-1.523,7.357-4.244C425.664,348.784,424.272,343.593,420.213,341.25z"/>
<path d="M162.348,299.168l-20.186,11.655c-4.059,2.343-5.45,7.534-3.106,11.593c1.573,2.723,4.424,4.244,7.357,4.244
	c1.439,0,2.9-0.368,4.235-1.138l20.186-11.655c4.059-2.343,5.45-7.534,3.106-11.593
	C171.596,298.214,166.405,296.826,162.348,299.168z"/>
<path d="M200.271,296.871l20.187-11.655c4.059-2.343,5.45-7.534,3.106-11.593c-2.342-4.059-7.536-5.45-11.593-3.106l-20.187,11.655
	c-4.059,2.343-5.45,7.534-3.106,11.593c1.572,2.723,4.424,4.244,7.357,4.244C197.477,298.01,198.936,297.644,200.271,296.871z"/>
<path d="M112.724,327.819l-20.187,11.654c-4.059,2.343-5.45,7.534-3.106,11.593c1.572,2.723,4.424,4.244,7.357,4.244
	c1.439,0,2.899-0.367,4.235-1.138l20.187-11.654c4.059-2.343,5.45-7.534,3.106-11.593
	C121.974,326.866,116.782,325.475,112.724,327.819z"/>
<path d="M255.999,118.638c-4.688,0-8.487,3.8-8.487,8.487v23.309c0,4.687,3.799,8.487,8.487,8.487s8.487-3.8,8.487-8.487v-23.309
	C264.485,122.438,260.687,118.638,255.999,118.638z"/>
<path d="M255.999,175.939c-4.688,0-8.487,3.8-8.487,8.487v23.309c0,4.687,3.799,8.487,8.487,8.487s8.487-3.8,8.487-8.487v-23.309
	C264.485,179.739,260.687,175.939,255.999,175.939z"/>
<path d="M255.999,61.336c-4.688,0-8.487,3.8-8.487,8.487v23.309c0,4.687,3.799,8.487,8.487,8.487s8.487-3.8,8.487-8.487V69.823
	C264.485,65.136,260.687,61.336,255.999,61.336z"/>
<path d="M474.594,124.894L260.241,1.137c-2.625-1.516-5.861-1.516-8.487,0L37.403,124.894c-2.625,1.516-4.243,4.317-4.243,7.349
	v247.513c0,3.033,1.618,5.833,4.243,7.349l122.108,70.5c4.06,2.343,9.25,0.953,11.593-3.106c2.343-4.059,0.953-9.249-3.106-11.593
	L56.728,378.665c0.575-0.182,1.142-0.413,1.685-0.726l11.76-6.789c4.059-2.343,5.45-7.534,3.106-11.593
	c-2.343-4.06-7.536-5.451-11.593-3.106l-11.553,6.67V146.939l189.303,109.295c-3.223,2.574-4.177,7.18-2.051,10.861
	c1.572,2.723,4.424,4.244,7.357,4.244c0.93,0,1.864-0.171,2.771-0.487v217.961l-44.073-25.445
	c-4.062-2.345-9.252-0.954-11.593,3.106c-2.343,4.059-0.953,9.249,3.106,11.593l56.801,32.793c1.313,0.758,2.778,1.137,4.243,1.137
	s2.931-0.379,4.243-1.137l214.353-123.757c2.625-1.516,4.243-4.317,4.243-7.349V132.244
	C478.837,129.211,477.219,126.409,474.594,124.894z M255.564,234.279c-4.131,0-7.568,2.952-8.327,6.861L58.621,132.241
	L247.516,23.183v13.12c0,4.687,3.799,8.487,8.487,8.487s8.487-3.8,8.487-8.487V23.188l188.888,109.055L263.962,241.602
	C263.392,237.467,259.855,234.279,255.564,234.279z M264.485,270.833c0.926,0.33,1.881,0.507,2.83,0.507
	c2.933,0,5.784-1.522,7.357-4.244c2.132-3.691,1.167-8.31-2.076-10.881L461.863,146.94v218.554c-0.398-0.343-0.831-0.657-1.302-0.93
	l-11.759-6.789c-4.058-2.345-9.249-0.954-11.593,3.106c-2.343,4.059-0.953,9.249,3.106,11.593l11.759,6.789
	c0.386,0.223,0.784,0.403,1.188,0.559L264.485,488.814V270.833z"/>
<g>
</g>
<g>
</g>
<g>
</g>
<g>
</g>
<g>
</g>
<g>
</g>
<g>
</g>
<g>
</g>
<g>
</g>
<g>
</g>
<g>
</g>
<g>
</g>
<g>
</g>
<g>
</g>
<g>
</g>
</svg>
