<?xml version="1.0" encoding="iso-8859-1"?>
<!-- Generator: Adobe Illustrator 19.0.0, SVG Export Plug-In . SVG Version: 6.00 Build 0)  -->
<svg version="1.1" id="Layer_1" xmlns="http://www.w3.org/2000/svg" xmlns:xlink="http://www.w3.org/1999/xlink" x="0px" y="0px"
	 viewBox="0 0 496.2 496.2" style="enable-background:new 0 0 496.2 496.2;" xml:space="preserve">
<path style="fill:#A3D5E0;" d="M248.1,0C111.1,0,0,111.1,0,248.1s111.1,248.1,248.1,248.1s248.1-111.1,248.1-248.1S385.1,0,248.1,0z
	"/>
<path style="fill:#0F0F0F;" d="M247.8,298.1c-38.3,0-54.3,10-54.3,10s0,24.7,0,27.2c0,13.5,24.4,24.4,54.6,24.4s54.6-10.9,54.6-24.4
	c0-2.5,0-27.2,0-27.2S286.1,298.1,247.8,298.1z"/>
<g>
	<path style="fill:#E2A379;" d="M304.9,269.8H191.3c17.7,46.3,1.4,68.3,1.4,68.3h110.7C303.5,338,287.2,316.1,304.9,269.8z"/>
	<path style="fill:#E2A379;" d="M247.7,333.4c-18.7,0-37.1,1-53.8,2.7c1.3,21,10.7,44.8,54.3,44.8c43.5,0,52.9-23.8,54.1-44.7
		C285.3,334.4,266.6,333.4,247.7,333.4z"/>
</g>
<path style="fill:#C11111;" d="M418.5,382.8c-8.5-27.3-81.2-49.3-170.8-49.3s-161.5,22-170,49.3c-2.6,8.5-5.5,22.2-8.3,37.4
	c45.1,46.9,108.5,76,178.7,76s133.6-29.2,178.7-76C424.1,405,421.2,391.2,418.5,382.8z"/>
<g>
	<path style="fill:#F2F2F4;" d="M294.5,334.5c0.2,3.3,2.5,7.2,5.9,8l108,26.5C389.4,352.9,347.2,339.3,294.5,334.5z"/>
	<path style="fill:#F2F2F4;" d="M87.7,369l108.2-26.5c3.4-0.8,5.7-4.8,5.9-8.1C148.8,339.2,106.6,352.9,87.7,369z"/>
	<path style="fill:#F2F2F4;" d="M238.9,347.6V496c1.9,0.1,3.8,0.1,5.8,0.1V347.6H238.9z"/>
	<circle style="fill:#F2F2F4;" cx="258.3" cy="372" r="8.8"/>
	<circle style="fill:#F2F2F4;" cx="258.3" cy="407.4" r="8.8"/>
	<circle style="fill:#F2F2F4;" cx="258.3" cy="442.9" r="8.8"/>
	<circle style="fill:#F2F2F4;" cx="258.3" cy="478.2" r="8.8"/>
</g>
<path style="fill:#2B2B2B;" d="M248.1,332.4c-30.2,0-54.6-10.9-54.6-24.4c0,0,0,24.7,0,27.2c0,13.5,24.4,24.4,54.6,24.4
	s54.6-10.9,54.6-24.4c0-2.5,0-27.2,0-27.2C302.7,321.5,278.2,332.4,248.1,332.4z"/>
<path style="fill:#0F0F0F;" d="M131.3,111.4c0,0,0,37.4,0,81.7s11.1,75.2,38.8,85c15.5,5.5,46.4,15.3,78,15.3c31.9,0,63-9.8,78-15.3
	c26.7-9.8,38.8-38,38.8-85.3s0-81.4,0-81.4S131.3,111.4,131.3,111.4z"/>
<path style="fill:#F4B382;" d="M248.1,65.6c-48.7,0-88.3,21.2-88.3,113.6c0,31.3,6.2,55.8,15.5,74.7c20.4,41.6,55.7,56.1,72.8,56.1
	s52.4-14.5,72.8-56.1c9.3-18.9,15.5-43.4,15.5-74.7C336.4,86.8,296.8,65.6,248.1,65.6z"/>
<path style="fill:#C6A726;" d="M338.7,232.7c-4.1-1.7-8.8,0.2-10.5,4.2c-0.3,0.6-25.9,59.1-80.6,59.1c-54.4,0-79.3-58.4-79.6-59.1
	c-1.7-4.1-6.4-6-10.4-4.3c-4.1,1.7-6,6.4-4.4,10.4c0.3,0.7,7.3,17.4,22.2,34.3c20.1,22.7,45.1,34.7,72.2,34.7s52.3-12,72.7-34.6
	c15.1-16.8,22.4-33.5,22.7-34.2C344.7,239.2,342.8,234.5,338.7,232.7z"/>
<g>
	<path style="fill:#F4B382;" d="M161.4,178c-8.4,1.4-14.9,5.1-10.1,32.9s10.7,29.1,19.1,27.7L161.4,178z"/>
	<path style="fill:#F4B382;" d="M334.9,178l-9,60.6c8.4,1.4,14.3,0.1,19.1-27.7C349.7,183.1,343.3,179.5,334.9,178z"/>
</g>
<g>
	<path style="fill:#2B1407;" d="M180.1,174.9l-14.6-34.1c-4.2,10.9-5.6,24.4-5.6,37.5c0,0,8.8-1.9,8.8,2.6l2.8,27.6l3.9-1.9
		C175,183.6,180.1,174.9,180.1,174.9z"/>
	<path style="fill:#2B1407;" d="M330.8,140.8l-14.6,34.1c0,0,5.1,8.8,4.9,31.8l3.9,1.9l2.8-27.6c0-4.5,8.8-2.6,8.8-2.6
		C336.5,165.1,335.1,151.7,330.8,140.8z"/>
</g>
<path style="fill:#C97565;" d="M259.8,260.1c-3.3-0.4-11.7,2.5-11.7,2.5s-8.5-2.9-11.8-2.5c-5.4,0.7-13.4,7.6-13.4,9
	c0,2.2,11.3,5.2,25.2,5.2s25.2-3,25.2-5.2C273.3,269.1,265.2,260.8,259.8,260.1z"/>
<path style="fill:#BA654F;" d="M248.1,267.2c-14.9,0-25.2,1.9-25.2,1.9c0,2.2,11.3,7.8,25.2,7.8s25.2-5.5,25.2-7.8
	C273.3,269.1,263,267.2,248.1,267.2z"/>
<g>
	<path style="fill:#C98F6F;" d="M256,201.7c0-11.4-3.8-14.4-3.8-14.4c2.2,8.3,2,15.2,2.3,21.7c0.4,9.3,4.2,14.6,4.2,14.6
		C257,219.7,256,213.1,256,201.7z"/>
	<path style="fill:#C98F6F;" d="M234.1,231.4c0,0-6.5,12.7,5.1,11.5C239.2,242.9,231.6,240.5,234.1,231.4z"/>
	<path style="fill:#C98F6F;" d="M262.1,231.4c2.5,9.1-5.1,11.5-5.1,11.5C268.6,244.8,262.1,231.4,262.1,231.4z"/>
</g>
<path style="fill:#2B1407;" d="M305.7,168.6c-7.4-6.4-19.1-6-25.4-5.1c-1.1,0.1-2.1,0.3-3.1,0.5c-0.3,0.1-0.9,1.1-0.9,1.1
	s-0.5-0.8-0.8-0.8c-5,1-9,2.5-11,3.7l-0.3,0.2c-2.3,1.3-5.1,3-3.4,7.4c0.9,2.2,2.4,3.4,4.2,3.2c0.4,0,0.8-0.2,1.2-0.3
	c0.5-0.2,1.2-0.7,1.8-1.1c0.4-0.2,0.7-0.5,1.1-0.7c0.4-0.3,0.9-0.5,1.3-0.7c0.6-0.3,1.5-2.8,1.5-2.8s1.6,1.4,2.3,1.2
	c2.8-1.1,5.9-1.8,9.2-2.2c8.9-1.1,16.4,0.4,18.3,1c1.4,0.4,2.4,0.6,3.2,0.5c1.5-0.2,1.9-1.3,2-1.8
	C307.2,170.6,306.7,169.4,305.7,168.6z"/>
<path style="fill:#EADAD0;" d="M281.5,181.4c-9.3-0.2-18.5,8.1-18.5,8.1s7.2,6.5,16.6,7.3c10.6,0.9,18.3-9.2,18.3-9.2
	S292.3,181.6,281.5,181.4z"/>
<circle style="fill:#1F2530;" cx="281.2" cy="188" r="7.5"/>
<g>
	<path style="fill:#DDA078;" d="M279.5,195.1c-9.3-0.7-16.6-5.8-16.6-5.8s7.2,7.6,16.6,7.6c16.7,0,18.3-9.1,18.3-9.1
		S290.1,195.8,279.5,195.1z"/>
	<path style="fill:#DDA078;" d="M281.5,179.8c-12.2,0-18.5,9.4-18.5,9.4s9.2-6.6,18.5-6.4c10.8,0.2,16.3,4.9,16.3,4.9
		S295.9,179.8,281.5,179.8z"/>
</g>
<path style="fill:#2B1407;" d="M231.9,168.2l-0.3-0.2c-2-1.2-6-2.7-11-3.7c-0.2,0-0.8,0.8-0.8,0.8s-0.5-1-0.9-1.1
	c-1-0.2-2.1-0.4-3.1-0.5c-6.3-0.8-17.9-1.2-25.4,5.1c-1,0.8-1.4,2-1.2,3.1c0.1,0.5,0.5,1.6,2,1.8c0.8,0.1,1.8-0.1,3.2-0.5
	c1.9-0.6,9.4-2.1,18.3-1c3.3,0.4,6.4,1.2,9.2,2.2c0.7,0.3,2.3-1.2,2.3-1.2s0.9,2.5,1.5,2.8c0.5,0.2,0.9,0.5,1.3,0.7
	c0.3,0.2,0.7,0.4,1.1,0.7c0.7,0.4,1.3,0.8,1.8,1.1c0.4,0.2,0.8,0.3,1.2,0.3c1.8,0.2,3.3-0.9,4.2-3.2
	C237,171.2,234.2,169.5,231.9,168.2z"/>
<path style="fill:#EADAD0;" d="M214.7,181.4c-10.8,0.2-16.3,6.2-16.3,6.2s7.7,10.1,18.3,9.2c9.3-0.8,16.6-7.3,16.6-7.3
	S224,181.2,214.7,181.4z"/>
<circle style="fill:#1F2530;" cx="215" cy="188" r="7.5"/>
<g>
	<path style="fill:#DDA078;" d="M216.7,195.1c-10.6,0.8-18.3-7.3-18.3-7.3s1.6,9.1,18.3,9.1c9.4,0,16.6-7.6,16.6-7.6
		S226,194.4,216.7,195.1z"/>
	<path style="fill:#DDA078;" d="M214.7,179.8c-14.4,0-16.3,7.9-16.3,7.9s5.5-4.7,16.3-4.9c9.3-0.2,18.5,6.4,18.5,6.4
		S226.9,179.8,214.7,179.8z"/>
</g>
<path style="fill:#0F0F0F;" d="M248.1,29.4c-64.5,0-116.8,43.8-116.8,97.8l0.2,77.1c0,0,41-56.3,117.1-56.3s116.3,56.3,116.3,56.3
	l0.1-77.1C364.9,73.2,312.6,29.4,248.1,29.4z"/>
<path style="fill:#2B2B2B;" d="M248.1,0c-42.2,0-82,10.6-116.8,29.2l0.1,141.2c0,0,41-56.3,117.1-56.3s116.3,56.3,116.3,56.3
	l0.1-141.2C330.1,10.6,290.3,0,248.1,0z"/>
<g>
</g>
<g>
</g>
<g>
</g>
<g>
</g>
<g>
</g>
<g>
</g>
<g>
</g>
<g>
</g>
<g>
</g>
<g>
</g>
<g>
</g>
<g>
</g>
<g>
</g>
<g>
</g>
<g>
</g>
</svg>
